<svg width="141" height="106" viewBox="0 0 141 106" fill="none" xmlns="http://www.w3.org/2000/svg">
<path d="M7.00002 56.5C5 47 12.1662 35.3434 18 32C22.2333 22.802 24.8159 18.9118 30.5 18.5C36.0727 12.3592 50.7394 8.87656 56.5 7" stroke="url(#paint0_linear_1_17)" stroke-width="10" stroke-linecap="round"/>
<path d="M7.43527 61C4.01227 63.5412 2.26946 78.4228 15.7484 83.363C21.6959 90.2577 25.6265 92.1604 34.3306 89.9702C48.8292 101.432 56.0929 103.681 66.116 93.528C81.788 96.3929 90.6408 96.5744 106.704 90.9867M110 89.9702C132.19 93.1693 130.231 91.1095 131.5 70" stroke="#E96324" stroke-width="10" stroke-linecap="round"/>
<path d="M137.5 63C135 85.5 123.493 84 113 84C59.5 94 94.0001 70.1208 94.0001 53C94.0001 35.8792 102.507 22 113 22C121 24.5 137.5 45.8792 137.5 63Z" fill="#8E9E61"/>
<path d="M127.5 56.5005C133 83.5 57.5 93.0005 57.5 93.0005C47 95.5005 -2.49997 77.0005 11.5 60.0005C11.5 39.0137 39.4609 5.00047 61 5.00047C92.5 -1.99953 121.897 28.9941 127.5 56.5005Z" fill="#8E9E61"/>
<path d="M53.0075 34.0039C54.2116 25.7281 44.9802 19.0186 35.8028 22.9774M23.6163 37.4737C26.8508 29.3896 31.3203 24.911 35.8028 22.9774M30.7849 36.6062C15.5516 34.8713 9.09978 58.8129 19.3151 69.3958M14.1178 61.9358C8.90489 68.5782 13.4009 81.3667 26.6628 77.7234M22.7201 79.8053C27.6911 84.8911 31.0513 85.9529 37.9533 85.01M32.2185 67.4874C30.0139 75.9871 33.8314 82.4076 41.8961 86.0509M42.6129 78.4173C39.5663 95.7664 68.4199 100.104 70.9289 77.7234M68.2407 86.9184C73.8644 89.7602 80.0688 89.3472 90.2841 86.9184M84.5492 86.9184C105.338 86.9184 119.496 85.5304 113.044 68.1814M109.639 84.316C129.372 86.4121 135.151 83.7956 133 72.1717M128.952 43.5458C137.375 47.0156 141.318 64.8851 128.235 73.5596M120.18 31.0545C126.094 31.7485 132.367 41.9844 124.123 49.7915M115.374 41.117C125.131 34.5302 120.85 25.242 105.517 21.952M105.517 21.952C101.053 20.9941 95.6522 20.5447 89.388 20.8186C77.849 20.5455 72.4075 23.0198 64.1187 31.0545C60.4485 34.0087 53.0075 35.2183 53.0075 35.2183C47.5159 37.7625 45.0003 40.1791 41.3584 45.9747C40.4257 48.598 39.3392 49.5679 36.878 50.8324C28.47 59.0784 29.9304 71.5133 39.9247 68.9291M105.517 21.952C96.1982 6.7659 81.2263 7.85789 68.2407 15.2669M78.9936 9.88873C69.1367 4.85748 54.0827 5.89842 46.9141 17.0018M48.527 14.226C45.3011 14.226 37.8102 16.4803 35.8028 22.9774M59.9968 18.0427C65.1857 14.3804 68.5522 14.4847 75.0508 17.0018M46.1972 65.9261C43.8309 67.4976 41.7374 68.4604 39.9247 68.9291M39.9247 68.9291C48.1394 73.5608 49.7042 76.303 48.8854 81.3667M49.7815 64.7116C55.3288 59.1942 58.2524 59.2706 68.7783 63.2258M75.7677 65.9261C73.1082 64.8907 70.8027 63.9865 68.7783 63.2258M88.1335 58.466C86.0271 63.3879 83.469 65.8352 79.8896 66.2132M68.7783 63.2258C73.3683 65.4525 76.969 66.5217 79.8896 66.2132M79.8896 66.2132C85.0769 69.9908 85.8702 72.6613 83.4739 78.4173M58.7423 77.7234C67.2361 79.1945 70.5742 78.138 73.4379 72.1717M115.374 37.4736C113.576 43.7171 111.632 47.3851 108.728 49.7915M100.32 53.6082C103.876 52.6735 106.567 51.5815 108.728 49.7915M108.728 49.7915C109.163 59.023 111.941 61.2631 120.213 61.4153M48.1686 46.4951C54.4146 42.8527 55.4821 43.8846 59.9968 49.7915C62.5005 46.3281 66.253 45.4254 69.8536 46.4951M39.9247 30.0136C32.987 32.3069 31.2949 35.8223 29.7094 43.5458M22.7201 49.271C21.6216 54.868 22.3458 57.3656 26.6628 60.3744M24.8706 71.4778C25.1083 75.3428 26.1079 76.904 29.7094 78.4173M78.6351 27.7582C87.76 30.0182 88.1737 32.2827 87 42C90.2477 35.1049 95.1798 35.8871 100.32 39.382M88.1335 43.5458C88.4231 44.9182 88.848 47.6451 89.388 48.5M96.019 52C92.9124 51.2847 90.4792 50.2276 89.388 48.5M89.388 48.5C81.7936 49.1236 80.2405 52.5998 77.2014 60.3744M96.5566 61.4153C101.528 67.7759 101.428 71.4219 96.019 78.0704M112.328 63.8442C113.246 67.154 111.898 68.9704 107.668 72.1717" stroke="#F5E8C4" stroke-width="6" stroke-linecap="round"/>
<path d="M50.3094 31.8879C51.5516 23.0347 42.0272 15.8571 32.5584 20.0921M19.985 35.5998C23.3222 26.9516 27.9337 22.1606 32.5584 20.0921M27.3812 34.6718C11.6643 32.8158 5.00771 58.4278 15.5473 69.749M10.185 61.7685C4.80663 68.8744 9.44535 82.555 23.1283 78.6576M19.0604 80.8847C24.1892 86.3253 27.6561 87.4612 34.7772 86.4525M28.8603 67.7075C26.5857 76.8001 30.5244 83.6686 38.8451 87.5661M39.5848 79.3999C36.4414 97.9594 66.211 102.599 68.7996 78.6576M66.0261 88.4941C71.8284 91.5342 78.2298 91.0924 88.7693 88.4941M82.8524 88.4941C104.301 88.4941 118.909 87.0093 112.252 68.4499M108.739 85.7102C129.098 87.9525 137.029 82.555 134.81 70.1202M130.003 42.0955C138.693 45.8074 142.761 64.9236 129.263 74.2033M120.758 28.7327C126.86 29.4751 133.331 40.4252 124.826 48.7769M114.656 39.4972C124.722 32.4509 120.305 22.5147 104.486 18.9952M104.486 18.9952C99.8803 17.9705 94.3078 17.4897 87.8448 17.7827C75.9394 17.4905 70.3251 20.1375 61.7733 28.7327C57.9865 31.8931 50.3094 33.187 50.3094 33.187C44.6434 35.9087 42.0479 38.4939 38.2904 44.6938C37.3281 47.5002 36.2071 48.5377 33.6678 49.8905C24.9928 58.7118 26.4996 72.0143 36.8112 69.2498M104.486 18.9952C94.8711 2.74957 79.4239 3.91775 66.0261 11.8437M77.1203 6.09026C66.9506 0.707998 51.4186 1.82156 44.0225 13.6996M45.6866 10.7301C42.3583 10.7301 34.6296 13.1417 32.5584 20.0921M57.5205 14.8132C62.8741 10.8954 66.3475 11.0069 73.0524 13.6996M43.2828 66.0372C40.8414 67.7184 38.6815 68.7484 36.8112 69.2498M36.8112 69.2498C45.2867 74.2046 46.9011 77.1381 46.0564 82.5551M46.9809 64.738C52.7043 58.8357 55.7207 58.9174 66.5808 63.1486M73.7921 66.0372C71.0481 64.9295 68.6694 63.9623 66.5808 63.1486M86.5505 58.0566C84.3772 63.3219 81.7378 65.9399 78.0449 66.3444M66.5808 63.1486C71.3165 65.5306 75.0315 66.6744 78.0449 66.3444M78.0449 66.3444C83.3968 70.3855 84.2153 73.2423 81.7429 79.3999M56.2261 78.6576C64.9897 80.2313 68.4337 79.1011 71.3883 72.7186M114.656 35.5997C112.801 42.2788 110.795 46.2026 107.798 48.7769M99.1239 52.86C102.793 51.86 105.57 50.6918 107.798 48.7769M107.798 48.7769C108.248 58.6525 111.114 61.0489 119.648 61.2117M45.3168 45.2506C51.7611 41.354 54.8964 41.9012 59.5544 48.2201C62.1376 44.5151 63.9753 44.1062 67.6902 45.2506M36.8112 27.6192C29.6533 30.0725 27.9074 33.8332 26.2716 42.0955M19.0604 48.2201C17.9271 54.2076 18.6743 56.8795 23.1283 60.0982M21.2792 71.9762C21.5244 76.1109 22.5558 77.781 26.2716 79.3999M76.7505 25.2064C86.1651 27.6241 89.0557 30.7723 87.8448 41.1675C91.1956 33.7914 93.8204 33.9025 99.1239 37.6413M87.8448 44.6938C88.1436 46.1619 88.53 47.3055 89.0871 48.2201M95.241 51.7464C92.0358 50.9812 90.213 50.0682 89.0871 48.2201M89.0871 48.2201C81.2516 48.8872 78.4068 51.7812 75.2713 60.0982M95.241 61.2117C100.37 68.016 100.266 71.9164 94.6862 79.0288M111.513 63.81C112.46 67.3508 111.07 69.294 106.705 72.7186" stroke="black" stroke-width="5" stroke-linecap="round"/>
<defs>
<linearGradient id="paint0_linear_1_17" x1="13.3148" y1="32" x2="13.3148" y2="56.0952" gradientUnits="userSpaceOnUse">
<stop offset="0.247618"/>
<stop offset="1" stop-color="#E96324"/>
</linearGradient>
</defs>
</svg>
